<svg width="30" height="30" fill="none" xmlns="http://www.w3.org/2000/svg"><g filter="url(#a)"><path fill-rule="evenodd" clip-rule="evenodd" d="M29.895 11.321c-.235-.674-.806-1.171-1.509-1.274l-8.07-1.245-3.602-7.733C16.377.44 15.732 0 15 0s-1.377.44-1.713 1.07L9.684 8.801 1.57 10.047c-.66.102-1.23.6-1.465 1.274a1.81 1.81 0 0 0 .44 1.904l5.887 6.02-1.406 8.567c-.102.703.205 1.406.762 1.846.337.234.703.336 1.113.336.293 0 .6-.073.908-.234L15 25.776l7.191 3.984c.308.161.615.234.908.234.41 0 .776-.102 1.113-.336.557-.44.864-1.143.762-1.846l-1.406-8.568 5.887-6.019a1.81 1.81 0 0 0 .44-1.904Z" fill="url(#b)"/></g><defs><linearGradient id="b" x1="0" y1="0" x2="0" y2="29.994" gradientUnits="userSpaceOnUse"><stop stop-color="#FFCD69"/><stop offset="1" stop-color="#FDCE71"/></linearGradient><filter id="a" x="0" y="0" width="30" height="29.994" filterUnits="userSpaceOnUse" color-interpolation-filters="sRGB"><feFlood flood-opacity="0" result="BackgroundImageFix"/><feBlend in="SourceGraphic" in2="BackgroundImageFix" result="shape"/><feColorMatrix in="SourceAlpha" values="0 0 0 0 0 0 0 0 0 0 0 0 0 0 0 0 0 0 127 0" result="hardAlpha"/><feOffset dy="-1"/><feComposite in2="hardAlpha" operator="arithmetic" k2="-1" k3="1"/><feColorMatrix values="0 0 0 0 0 0 0 0 0 0 0 0 0 0 0 0 0 0 0.1 0"/><feBlend in2="shape" result="effect1_innerShadow_15331:21"/></filter></defs></svg>